<svg xmlns="http://www.w3.org/2000/svg" width="52" height="52" fill="none"><g clip-path="url(#a)"><path fill="gray" fill-opacity=".3" d="M4 14a2 2 0 1 0-4 0 2 2 0 0 0 4 0ZM4 2a2 2 0 1 0-4 0 2 2 0 0 0 4 0Zm12 36a2 2 0 1 0-4 0 2 2 0 0 0 4 0Zm0-12a2 2 0 1 0-4 0 2 2 0 0 0 4 0Zm0-12a2 2 0 1 0-4 0 2 2 0 0 0 4 0Zm0-12a2 2 0 1 0-4 0 2 2 0 0 0 4 0Zm12 36a2 2 0 1 0-4 0 2 2 0 0 0 4 0Zm0-12a2 2 0 1 0-4 0 2 2 0 0 0 4 0Zm0-12a2 2 0 1 0-4 0 2 2 0 0 0 4 0Zm0-12a2 2 0 1 0-4 0 2 2 0 0 0 4 0Zm12 48a2 2 0 1 0-4 0 2 2 0 0 0 4 0Zm0-12a2 2 0 1 0-4 0 2 2 0 0 0 4 0Zm0-12a2 2 0 1 0-4 0 2 2 0 0 0 4 0Zm0-12a2 2 0 1 0-4 0 2 2 0 0 0 4 0Zm0-12a2 2 0 1 0-4 0 2 2 0 0 0 4 0Zm12 48a2 2 0 1 0-4 0 2 2 0 0 0 4 0Zm0-12a2 2 0 1 0-4 0 2 2 0 0 0 4 0Zm0-12a2 2 0 1 0-4 0 2 2 0 0 0 4 0Zm0-12a2 2 0 1 0-4 0 2 2 0 0 0 4 0Zm0-12a2 2 0 1 0-4 0 2 2 0 0 0 4 0Z"/></g><defs><clipPath id="a"><path fill="#fff" d="M0 0h52v52H0z"/></clipPath></defs></svg>