<svg xmlns="http://www.w3.org/2000/svg" width="52" height="52" fill="none"><g clip-path="url(#a)"><path fill="gray" fill-opacity=".3" d="M48 38a2 2 0 1 0 4 0 2 2 0 0 0-4 0Zm0 12a2 2 0 1 0 4 0 2 2 0 0 0-4 0ZM36 14a2 2 0 1 0 4 0 2 2 0 0 0-4 0Zm0 12a2 2 0 1 0 4 0 2 2 0 0 0-4 0Zm0 12a2 2 0 1 0 4 0 2 2 0 0 0-4 0Zm0 12a2 2 0 1 0 4 0 2 2 0 0 0-4 0ZM24 14a2 2 0 1 0 4 0 2 2 0 0 0-4 0Zm0 12a2 2 0 1 0 4 0 2 2 0 0 0-4 0Zm0 12a2 2 0 1 0 4 0 2 2 0 0 0-4 0Zm0 12a2 2 0 1 0 4 0 2 2 0 0 0-4 0ZM12 2a2 2 0 1 0 4 0 2 2 0 0 0-4 0Zm0 12a2 2 0 1 0 4 0 2 2 0 0 0-4 0Zm0 12a2 2 0 1 0 4 0 2 2 0 0 0-4 0Zm0 12a2 2 0 1 0 4 0 2 2 0 0 0-4 0Zm0 12a2 2 0 1 0 4 0 2 2 0 0 0-4 0ZM0 2a2 2 0 1 0 4 0 2 2 0 0 0-4 0Zm0 12a2 2 0 1 0 4 0 2 2 0 0 0-4 0Zm0 12a2 2 0 1 0 4 0 2 2 0 0 0-4 0Zm0 12a2 2 0 1 0 4 0 2 2 0 0 0-4 0Zm0 12a2 2 0 1 0 4 0 2 2 0 0 0-4 0Z"/></g><defs><clipPath id="a"><path fill="#fff" d="M52 52H0V0h52z"/></clipPath></defs></svg>