<svg xmlns="http://www.w3.org/2000/svg" width="52" height="52" fill="none"><g fill="#E4A30B" clip-path="url(#a)"><path d="M4 38a2 2 0 1 1-4 0 2 2 0 0 1 4 0ZM4 50a2 2 0 1 1-4 0 2 2 0 0 1 4 0ZM16 14a2 2 0 1 1-4 0 2 2 0 0 1 4 0ZM16 26a2 2 0 1 1-4 0 2 2 0 0 1 4 0ZM16 38a2 2 0 1 1-4 0 2 2 0 0 1 4 0ZM16 50a2 2 0 1 1-4 0 2 2 0 0 1 4 0ZM28 14a2 2 0 1 1-4 0 2 2 0 0 1 4 0ZM28 26a2 2 0 1 1-4 0 2 2 0 0 1 4 0ZM28 38a2 2 0 1 1-4 0 2 2 0 0 1 4 0ZM28 50a2 2 0 1 1-4 0 2 2 0 0 1 4 0ZM40 2a2 2 0 1 1-4 0 2 2 0 0 1 4 0ZM40 14a2 2 0 1 1-4 0 2 2 0 0 1 4 0ZM40 26a2 2 0 1 1-4 0 2 2 0 0 1 4 0ZM40 38a2 2 0 1 1-4 0 2 2 0 0 1 4 0ZM40 50a2 2 0 1 1-4 0 2 2 0 0 1 4 0ZM52 2a2 2 0 1 1-4 0 2 2 0 0 1 4 0ZM52 14a2 2 0 1 1-4 0 2 2 0 0 1 4 0ZM52 26a2 2 0 1 1-4 0 2 2 0 0 1 4 0ZM52 38a2 2 0 1 1-4 0 2 2 0 0 1 4 0ZM52 50a2 2 0 1 1-4 0 2 2 0 0 1 4 0Z"/></g><defs><clipPath id="a"><path fill="#fff" d="M0 0h52v52H0z"/></clipPath></defs></svg>