<svg xmlns="http://www.w3.org/2000/svg" width="140" height="45" fill="none"><path fill="#9C9C9C" d="M11.394 27.717v6.07c0 3.034-1.12 4.128-2.9 4.128-1.78 0-2.899-1.094-2.899-4.129V10.843c0-3.035 1.12-4.189 2.9-4.189 1.78 0 2.899 1.154 2.899 4.189v4.552h5.29v-4.127C16.684 4.47 13.835.585 8.342.585 2.848.585 0 4.47 0 11.268V33.36c0 6.799 2.848 10.684 8.342 10.684 5.493 0 8.342-3.885 8.342-10.684v-5.644h-5.29ZM32.503 1.071 38.2 43.56h-5.646l-.967-7.708h-6.866l-.967 7.708h-5.137l5.697-42.488h8.189Zm-4.425 7.526-2.645 21.488h5.391L28.18 8.596h-.101l-.001.001ZM58.19 43.56h-5.697c-.305-1.093-.509-1.761-.509-5.22v-6.677c0-3.945-1.119-5.402-3.662-5.402h-1.933v17.3h-5.595V1.07h8.444c5.798 0 8.29 3.217 8.29 9.773v3.338c0 4.37-1.17 7.162-3.662 8.558 2.798 1.517 3.713 4.673 3.713 9.105V38.4c0 2.064.052 3.58.611 5.16ZM49.085 7.14h-2.696v13.051h2.187c2.086 0 3.357-1.092 3.357-4.491V11.51c0-3.034-.864-4.37-2.848-4.37Zm26.157-6.069 5.697 42.488h-5.646l-.966-7.708H67.46l-.966 7.708h-5.138l5.697-42.488h8.189Zm-4.425 7.526-2.645 21.488h5.392L70.919 8.596h-.102v.001Zm15.298-7.526h-5.646l5.493 42.488h8.342l5.493-42.488H94.66l-4.222 34.657h-.102L86.115 1.07Zm27.098 0 5.697 42.488h-5.646l-.966-7.708h-6.867l-.967 7.708h-5.137l5.697-42.488h8.189Zm-4.425 7.526-2.645 21.488h5.392L108.89 8.596h-.102v.001Zm25.464 34.962H140V1.071h-4.985v25.431h-.102l-5.646-25.43h-7.019v42.487h5.036V12.784h.101l6.867 30.775Z"/></svg>