<svg xmlns="http://www.w3.org/2000/svg" width="164" height="39" fill="none"><g clip-path="url(#a)"><path fill="#9C9C9C" d="M2.688 30.863c-.812 0-1.47-.258-1.974-.776C.238 29.57 0 28.895 0 28.061V2.845c0-.833.224-1.48.672-1.94.476-.46 1.12-.69 1.932-.69h14.742c1.708 0 2.562.748 2.562 2.242 0 1.466-.854 2.198-2.562 2.198H5.334v8.277h11.172c1.708 0 2.562.747 2.562 2.241 0 1.466-.854 2.198-2.562 2.198H5.334v10.69c0 .834-.238 1.51-.714 2.026-.476.518-1.12.776-1.932.776Zm24.925 0c-.756 0-1.386-.215-1.89-.646-.476-.46-.714-1.107-.714-1.94V2.543c0-.833.238-1.465.714-1.896C26.227.216 26.857 0 27.613 0s1.386.216 1.89.647c.504.43.756 1.063.756 1.896v25.734c0 .833-.252 1.48-.756 1.94-.504.43-1.134.646-1.89.646Zm24.314-6.034c.476 0 .854.186 1.134.56.308.374.462.877.462 1.509 0 .89-.518 1.638-1.554 2.241-.952.546-2.03.992-3.234 1.336-1.204.316-2.352.475-3.444.475-3.304 0-5.922-.977-7.854-2.932-1.932-1.954-2.898-4.626-2.898-8.017 0-2.155.42-4.066 1.26-5.733.84-1.667 2.016-2.96 3.528-3.88 1.54-.92 3.276-1.379 5.208-1.379 1.848 0 3.458.417 4.83 1.25 1.372.833 2.436 2.012 3.192 3.535.756 1.523 1.134 3.319 1.134 5.388 0 1.236-.532 1.853-1.596 1.853h-12.39c.168 1.983.714 3.449 1.638 4.397.924.92 2.268 1.38 4.032 1.38.896 0 1.68-.116 2.352-.345.7-.23 1.484-.546 2.352-.949.84-.46 1.456-.69 1.848-.69ZM44.66 12.802c-1.428 0-2.576.46-3.444 1.38-.84.92-1.344 2.241-1.512 3.965h9.492c-.056-1.753-.476-3.074-1.26-3.965-.784-.92-1.876-1.38-3.276-1.38ZM75.383 26.64c.504.517.756 1.106.756 1.767 0 .633-.238 1.207-.714 1.725-.476.488-1.036.732-1.68.732-.7 0-1.302-.301-1.806-.905l-5.922-6.724-5.922 6.724c-.532.575-1.134.862-1.806.862-.616 0-1.162-.244-1.638-.733-.476-.488-.714-1.048-.714-1.68 0-.662.252-1.25.756-1.768l6.132-6.854-5.796-6.466c-.504-.517-.756-1.106-.756-1.767 0-.66.238-1.221.714-1.68.476-.49 1.022-.734 1.638-.734.672 0 1.274.288 1.806.862l5.586 6.294L71.603 10c.532-.574 1.134-.862 1.806-.862.644 0 1.19.245 1.638.733.476.46.714 1.02.714 1.681s-.252 1.25-.756 1.768l-5.796 6.465 6.174 6.854Zm23.236-11.725c1.708.489 3.024 1.38 3.948 2.673.952 1.293 1.428 2.874 1.428 4.741 0 2.587-.91 4.613-2.73 6.078-1.792 1.466-4.27 2.199-7.434 2.199H82.995c-.812 0-1.456-.23-1.932-.69-.448-.46-.672-1.106-.672-1.94V2.845c0-.833.224-1.48.672-1.94.476-.46 1.12-.69 1.932-.69H93.41c3.08 0 5.488.705 7.224 2.113 1.764 1.38 2.646 3.319 2.646 5.819 0 1.61-.42 3.003-1.26 4.181-.812 1.178-1.946 2.04-3.402 2.586h.001Zm-12.936-1.896h6.846c3.724 0 5.586-1.423 5.586-4.268 0-1.436-.462-2.5-1.386-3.19-.924-.69-2.324-1.034-4.2-1.034h-6.846v8.492Zm7.56 13.276c1.96 0 3.388-.359 4.284-1.077.896-.719 1.344-1.84 1.344-3.363s-.462-2.658-1.386-3.405c-.896-.747-2.31-1.12-4.242-1.12h-7.56v8.965h7.56Zm17.96 4.57c-.756 0-1.386-.216-1.89-.647-.476-.46-.714-1.107-.714-1.94V2.543c0-.833.238-1.465.714-1.896.504-.431 1.134-.647 1.89-.647s1.386.216 1.89.647c.504.43.756 1.063.756 1.896v25.734c0 .833-.252 1.48-.756 1.94-.504.43-1.134.646-1.89.646Zm17.426.086c-2.1 0-3.948-.446-5.544-1.337-1.568-.89-2.786-2.17-3.654-3.836-.868-1.667-1.302-3.607-1.302-5.82 0-2.212.434-4.137 1.302-5.775.868-1.667 2.086-2.946 3.654-3.837 1.596-.89 3.444-1.336 5.544-1.336 2.1 0 3.934.445 5.502 1.336a8.843 8.843 0 0 1 3.654 3.837c.868 1.638 1.302 3.563 1.302 5.776 0 2.213-.434 4.152-1.302 5.819a8.843 8.843 0 0 1-3.654 3.836c-1.568.891-3.402 1.337-5.502 1.337Zm-.042-4.182c1.708 0 3.01-.574 3.906-1.724.896-1.15 1.344-2.845 1.344-5.086 0-2.213-.448-3.894-1.344-5.044-.896-1.178-2.184-1.767-3.864-1.767-1.68 0-2.982.59-3.906 1.767-.896 1.15-1.344 2.831-1.344 5.044 0 2.241.448 3.937 1.344 5.086.896 1.15 2.184 1.724 3.864 1.724Zm32.222-17.673c.784 0 1.414.23 1.89.69.476.46.714 1.078.714 1.853v17.027c0 3.305-.896 5.805-2.688 7.5-1.792 1.696-4.438 2.544-7.938 2.544-3.052 0-5.6-.59-7.644-1.768-1.036-.632-1.554-1.394-1.554-2.284 0-.633.14-1.135.42-1.51.308-.373.7-.56 1.176-.56.252 0 .56.058.924.173.364.144.742.302 1.134.474 1.008.431 1.904.762 2.688.992.812.23 1.736.344 2.772.344 3.668 0 5.502-1.839 5.502-5.517v-2.759a6.632 6.632 0 0 1-2.688 2.759c-1.176.632-2.52.948-4.032.948-1.792 0-3.388-.43-4.788-1.293-1.372-.89-2.45-2.126-3.234-3.707-.784-1.58-1.176-3.405-1.176-5.474 0-2.07.378-3.894 1.134-5.475.784-1.609 1.876-2.845 3.276-3.707 1.4-.89 2.996-1.336 4.788-1.336 1.512 0 2.856.33 4.032.991a6.367 6.367 0 0 1 2.688 2.716v-1.12c0-.748.238-1.351.714-1.811.476-.46 1.106-.69 1.89-.69Zm-7.938 16.725c1.68 0 2.982-.56 3.906-1.681.952-1.12 1.428-2.658 1.428-4.612 0-1.983-.476-3.535-1.428-4.656-.924-1.12-2.226-1.68-3.906-1.68-1.652 0-2.954.56-3.906 1.68-.952 1.121-1.428 2.673-1.428 4.656 0 1.954.476 3.491 1.428 4.612.952 1.12 2.254 1.681 3.906 1.681Z"/></g><defs><clipPath id="a"><path fill="#fff" d="M0 0h164v39H0z"/></clipPath></defs></svg>