<svg xmlns="http://www.w3.org/2000/svg" width="139" height="61" fill="none"><path fill="#9C9C9C" d="M24.912 13.452 20.31 47.22h-6.612l1.68-12.193H8.256L6.61 47.22H0l4.639-33.768h6.575L9.242 27.71h7.122l1.974-14.258h6.574ZM38.473 47.22l.22-7.363h-6.1l-1.79 7.363h-6.977l9.388-33.768h12.053l.147 33.768h-6.941Zm-1.497-25.56-2.885 11.912h4.785l.401-11.911-2.301-.001Zm36.807-8.208L69.18 47.22h-6.612l-4.601-18.477-2.484 18.478H48.87l4.639-33.769h6.794l4.53 17.26 2.373-17.26h6.577Zm15.425 0c3.19 0 5.467 1.033 6.83 3.096.999 1.563 1.497 3.518 1.497 5.862 0 .845-.06 1.735-.181 2.673l-1.425 10.46c-.487 3.532-1.681 6.362-3.58 8.489-1.9 2.126-4.359 3.188-7.38 3.188H74.34l4.64-33.768h10.228Zm-2.302 7.318h-2.374l-2.593 19.133h3.47c1.144 0 2.033-.392 2.666-1.172.658-.814 1.108-2.127 1.35-3.94l1.061-7.691c.092-.62.141-1.248.146-1.877 0-2.971-1.241-4.453-3.726-4.453Zm30.206 26.45H98.775l4.641-33.768h18.337l-1.023 7.318h-11.762l-.84 6.331h9.716l-1.022 7.315h-9.717l-.73 5.488h11.762l-1.025 7.316Zm20.865 0H121.32l4.64-33.768h6.575l-3.616 26.452H139l-1.023 7.316Zm-64.506 6.01h63.543l-1.985 7.018H71.486l1.985-7.019ZM6.95.583h69.5l-1.986 7.019h-69.5L6.95.584Z"/></svg>