<svg xmlns="http://www.w3.org/2000/svg" width="208" height="42" fill="none"><g clip-path="url(#a)"><mask id="b" width="208" height="42" x="0" y="0" maskUnits="userSpaceOnUse" style="mask-type:luminance"><path fill="#fff" d="M0 0h208v42H0V0Z"/></mask><g mask="url(#b)"><path fill="#9C9C9C" fill-rule="evenodd" d="M13.945 37.004a.853.853 0 0 1-.685-.352 2.526 2.526 0 0 1-.45-1.054c-.108-.487-.192-.98-.25-1.475-.07-.639-.104-1.28-.106-1.923-.02-1.412-.016-2.824.014-4.235.018-.867.026-1.543.026-2.03V9.797c0-.795.005-1.399.014-1.814.009-.415.04-.884.091-1.407.03-.39.096-.775.199-1.15.1-.29.233-.567.395-.826.15-.272.368-.496.633-.65.308-.158.625-.297.949-.42.418-.159.85-.272 1.291-.338.574-.086 1.15-.158 1.728-.217v-1.49l-.45-.462H1.422L1 1.485v1.273c2.672.163 4.166.939 4.482 2.328.184 1.173.272 2.36.264 3.547v24.715a25.419 25.419 0 0 1-.159 3.845 1.78 1.78 0 0 1-.316.54c-.204.25-.419.49-.645.718-.18.177-.35.362-.514.555v.947c13.587 0 21.997.09 25.23.272l1.135-3.926-.712-.515c-5.25.677-10.53 1.084-15.819 1.22h-.001ZM39.201 25.69a.712.712 0 0 1-.158.026c-.263 0-.395-.098-.395-.297.001-.897.067-1.793.198-2.68.148-.968.395-1.916.738-2.829.33-.925.784-1.8 1.347-2.599a6.366 6.366 0 0 1 2.263-1.92 6.205 6.205 0 0 1 2.865-.665c.717-.041 1.43.11 2.073.437.643.328 1.19.821 1.591 1.431a7.562 7.562 0 0 1 1.24 4.277c-.004.279-.09.55-.248.777-.158.228-.38.4-.636.495a42.364 42.364 0 0 1-4.416 1.544 291.317 291.317 0 0 0-6.3 1.977.717.717 0 0 0-.162.026Zm15.66 8.446c-3.165 1.967-5.898 2.95-8.198 2.95a7.368 7.368 0 0 1-4.377-1.327 7.98 7.98 0 0 1-2.755-3.316 10.45 10.45 0 0 1-.883-4.29c11.495-3.663 17.295-5.495 17.4-5.495a1.942 1.942 0 0 0 1.15-.734c.285-.377.429-.847.405-1.323a7.875 7.875 0 0 0-.883-3.817 6.535 6.535 0 0 0-2.386-2.532 11.394 11.394 0 0 0-3.256-1.326 16.237 16.237 0 0 0-3.785-.42 15.634 15.634 0 0 0-6.642 1.367 12.767 12.767 0 0 0-4.758 3.655 16.744 16.744 0 0 0-2.755 5.144 18.803 18.803 0 0 0-.95 5.969c0 4.17 1.1 7.291 3.296 9.367 1.986 1.895 4.79 2.842 8.41 2.842a13.312 13.312 0 0 0 5.972-1.489 45.897 45.897 0 0 0 6.393-3.954l-.577-1.053-.821-.218ZM90.37 5.59a7.835 7.835 0 0 0-3.876-4.304 16.02 16.02 0 0 0-6.986-1.3 20.054 20.054 0 0 0-5.18.65 15.568 15.568 0 0 0-4.456 1.95 9.295 9.295 0 0 0-3.203 3.534 10.766 10.766 0 0 0-1.187 5.129c0 1.278.302 2.536.883 3.667a10.224 10.224 0 0 0 2.215 2.966 26.986 26.986 0 0 0 3.11 2.422 36.063 36.063 0 0 0 3.402 2.057c1.1.58 2.181 1.194 3.243 1.842.88.51 1.706 1.114 2.465 1.8 1.95 1.86 2.926 3.628 2.926 5.306a6.663 6.663 0 0 1-.535 2.59 6.529 6.529 0 0 1-1.495 2.16 6.666 6.666 0 0 1-2.23 1.552 6.532 6.532 0 0 1-2.647.52 6.817 6.817 0 0 1-3.082-.637 6.983 6.983 0 0 1-2.494-1.962 9.046 9.046 0 0 1-2.148-5.93l-1.027-.38-5.246 6.038a12.37 12.37 0 0 0 4.72 4.156 13.575 13.575 0 0 0 6.195 1.449c1.959-.01 3.905-.32 5.774-.922a21.076 21.076 0 0 0 5.326-2.505 13.034 13.034 0 0 0 3.914-4.005 9.56 9.56 0 0 0 1.516-5.158 8.172 8.172 0 0 0-.5-2.882 9.286 9.286 0 0 0-1.292-2.383 11.661 11.661 0 0 0-2.202-2.125 28.127 28.127 0 0 0-2.808-1.91 95.68 95.68 0 0 0-3.532-1.963c-.83-.412-1.648-.85-2.452-1.313-.76-.456-1.5-.946-2.218-1.47a11.2 11.2 0 0 1-2.002-1.802 8.383 8.383 0 0 1-1.266-2.112 6.568 6.568 0 0 1-.527-2.613 5.615 5.615 0 0 1 .376-2.15 5.511 5.511 0 0 1 1.164-1.83 5.42 5.42 0 0 1 1.87-1.25 5.315 5.315 0 0 1 2.203-.373c.931-.041 1.86.13 2.719.499.859.37 1.628.93 2.251 1.639a9.579 9.579 0 0 1 2.254 5.171l.923.297L90.37 5.59Zm25.638 10.382a5.402 5.402 0 0 0-1.977-2.03 9.392 9.392 0 0 0-2.61-1.042 13.072 13.072 0 0 0-2.992-.325 15.291 15.291 0 0 0-5.629.989 12.18 12.18 0 0 0-4.165 2.612 14.156 14.156 0 0 0-2.742 3.83 18.488 18.488 0 0 0-1.569 4.534 24.215 24.215 0 0 0-.474 4.846c-.006 1.383.185 2.76.566 4.085a12.3 12.3 0 0 0 1.7 3.587 7.888 7.888 0 0 0 3.099 2.6c1.418.663 2.963.992 4.521.96 4.939 0 9.579-2.229 13.92-6.686l-.527-.786-.659-.162c-3.216 2.545-6.187 3.817-8.911 3.817a6.18 6.18 0 0 1-2.939-.69 5.963 5.963 0 0 1-2.099-1.786 10.904 10.904 0 0 1-1.332-2.518 13.76 13.76 0 0 1-.751-2.774c-.14-.895-.21-1.8-.211-2.707.006-1.153.103-2.302.29-3.438.207-1.265.516-2.51.923-3.723a7.817 7.817 0 0 1 1.872-3.14c.379-.393.83-.705 1.328-.916a3.963 3.963 0 0 1 1.572-.316c.72-.04 1.438.126 2.071.48a3.923 3.923 0 0 1 1.514 1.524 9.689 9.689 0 0 1 1.16 4.927l.923.38 4.983-3.032a6.992 6.992 0 0 0-.855-3.1Zm9.663 8.054a16.93 16.93 0 0 1 .699-3.126c.303-.989.733-1.93 1.278-2.802a6.181 6.181 0 0 1 2.044-1.963 5.525 5.525 0 0 1 2.913-.771 5.712 5.712 0 0 1 3.15.852 5.585 5.585 0 0 1 2.043 2.329c.477.99.822 2.041 1.027 3.126.217 1.168.324 2.356.317 3.546 0 1.083-.009 1.986-.027 2.707a33.717 33.717 0 0 1-.184 2.6c-.078.85-.223 1.691-.435 2.517a13.064 13.064 0 0 1-.804 2.112 5.297 5.297 0 0 1-1.279 1.759 6.287 6.287 0 0 1-1.872 1.083 7.097 7.097 0 0 1-2.57.433 4.599 4.599 0 0 1-2.703-.84 6.152 6.152 0 0 1-1.884-2.07 12.956 12.956 0 0 1-1.134-2.829c-.28-.97-.483-1.962-.607-2.965a23.03 23.03 0 0 1-.158-2.613 25.451 25.451 0 0 1 .186-3.085Zm-3.269 13.996c1.915 1.787 4.956 2.68 9.122 2.68 1.54.01 3.076-.171 4.574-.542a13.335 13.335 0 0 0 3.978-1.745 11.901 11.901 0 0 0 3.177-3.02 14.251 14.251 0 0 0 2.083-4.493 21.91 21.91 0 0 0 .765-6.01 11.513 11.513 0 0 0-.869-4.765 11.282 11.282 0 0 0-2.743-3.952c-2.198-2.02-5.388-3.031-9.57-3.031-4.183 0-7.628 1.327-10.335 3.98a13.304 13.304 0 0 0-3.077 4.577 13.578 13.578 0 0 0-.983 5.466c0 4.837 1.291 8.455 3.875 10.855h.003Zm41.258-21.44c1.406 0 2.408.289 3.006.866a4.8 4.8 0 0 1 1.014 2.439c.221 1.055.358 2.128.409 3.207.035.947.053 2.17.053 3.668a472.71 472.71 0 0 1-.039 5.834c-.009.586-.005 1.277.012 2.071.005.593.04 1.185.106 1.773.053.389.123.813.211 1.272.061.385.186.755.369 1.096.158.272.352.518.578.733a4.025 4.025 0 0 0 2.899 1.081c1.319 0 2.83-.686 4.535-2.057a50.127 50.127 0 0 0 4.06-3.872l-.606-.922h-.633a6.341 6.341 0 0 1-3.611 1.435 2.02 2.02 0 0 1-.822-.123 2.054 2.054 0 0 1-.708-.445 2.083 2.083 0 0 1-.462-.527 3.967 3.967 0 0 1-.276-1.11 16.08 16.08 0 0 1-.132-2.342c0-.595.031-1.557.092-2.883.049-.942.08-1.885.093-2.829v-1.625c.017-1.75.013-2.963-.013-3.641a26.352 26.352 0 0 0-.304-2.761 5.112 5.112 0 0 0-.817-2.41 5.496 5.496 0 0 0-1.635-1.244 5.619 5.619 0 0 0-2.689-.583c-3.093 0-6.679 1.3-10.756 3.899l-.633-.244a5.22 5.22 0 0 0-.909-2.774c-.519-.697-1.411-1.043-2.676-1.043-.758.01-1.51.142-2.228.393a10.66 10.66 0 0 0-2.374 1.163c-.8.515-1.494.994-2.083 1.435-.589.442-1.27.979-2.043 1.61l.975 1.327c.179-.119.36-.236.541-.351.307-.199.575-.36.804-.488.228-.126.501-.274.817-.446.283-.158.579-.29.884-.396.233-.082.477-.128.724-.135.305-.007.606.072.87.23.268.182.47.448.578.759.132.327.246.66.342 1 .108.458.17.925.185 1.396.036.614.057 1.11.064 1.488.008.378.012.947.013 1.706v.46c0 1.769-.132 7.183-.395 16.242l.659.38 5.932-1.76c-.176-.776-.308-3.221-.396-7.335-.087-4.024-.13-8.05-.128-12.075 3.058-1.696 5.237-2.544 6.538-2.544l.005.002Zm25.573 9.23a.683.683 0 0 1-.158.028c-.263 0-.395-.1-.396-.297.001-.898.067-1.793.199-2.68.148-.968.395-1.916.737-2.83a10.9 10.9 0 0 1 1.345-2.599 6.364 6.364 0 0 1 2.263-1.92 6.2 6.2 0 0 1 2.865-.665c.716-.041 1.431.11 2.073.437.643.328 1.191.82 1.591 1.431a7.555 7.555 0 0 1 1.239 4.277c-.004.279-.09.55-.248.777-.158.227-.379.4-.635.495a42.445 42.445 0 0 1-4.415 1.544 291.369 291.369 0 0 0-6.301 1.977.777.777 0 0 0-.158.026l-.001-.001Zm15.66 8.447c-3.165 1.968-5.898 2.951-8.199 2.95a7.376 7.376 0 0 1-4.377-1.326 7.976 7.976 0 0 1-2.754-3.316 10.458 10.458 0 0 1-.884-4.292c11.495-3.662 17.295-5.494 17.401-5.494a1.948 1.948 0 0 0 1.15-.734 2.03 2.03 0 0 0 .405-1.324 7.88 7.88 0 0 0-.883-3.816 6.534 6.534 0 0 0-2.386-2.532 11.405 11.405 0 0 0-3.256-1.326 16.242 16.242 0 0 0-3.786-.42 15.63 15.63 0 0 0-6.64 1.367 12.767 12.767 0 0 0-4.758 3.655 16.728 16.728 0 0 0-2.755 5.144 18.773 18.773 0 0 0-.949 5.969c0 4.17 1.098 7.29 3.295 9.367 1.986 1.895 4.789 2.842 8.41 2.842a13.31 13.31 0 0 0 5.972-1.489 45.964 45.964 0 0 0 6.393-3.953l-.577-1.054-.822-.218Z" clip-rule="evenodd"/></g></g><defs><clipPath id="a"><path fill="#fff" d="M0 0h208v42H0z"/></clipPath></defs></svg>