<svg xmlns="http://www.w3.org/2000/svg" width="200" height="50" fill="none"><g fill="#9C9C9C" clip-path="url(#a)"><path d="M54.381 44.912c-3.32 0-5.865-.58-7.636-1.739-1.74-1.191-2.609-2.931-2.609-5.218 0-1.16.38-2.11 1.138-2.851.791-.772 1.803-1.16 3.036-1.16.727.033 1.28.225 1.66.58.38.323.57.629.57.919 0 .032-.159.145-.475.338-.316.194-.6.483-.854.869-.253.388-.38.918-.38 1.595 0 1.514.444 2.69 1.329 3.527.917.806 2.324 1.208 4.221 1.208 1.297 0 2.435-.258 3.416-.773.98-.515 1.723-1.192 2.229-2.03.537-.869.806-1.77.806-2.706 0-1.159-.332-2.157-.996-2.994a7.85 7.85 0 0 0-2.371-2.078c-.95-.58-2.246-1.24-3.89-1.982-1.897-.87-3.43-1.658-4.6-2.367a9.976 9.976 0 0 1-2.99-2.802c-.821-1.192-1.232-2.657-1.232-4.397 0-2.802.932-4.896 2.798-6.28 1.898-1.386 4.38-2.078 7.447-2.078 2.403 0 4.49.515 6.261 1.546 1.803 1.03 2.704 2.545 2.704 4.54 0 1.16-.396 2.127-1.186 2.9-.759.741-1.755 1.112-2.988 1.112-.728-.033-1.281-.21-1.66-.532-.38-.354-.57-.676-.57-.966 0-.033.206-.145.617-.339a3 3 0 0 0 1.138-.87c.348-.386.522-.918.522-1.593 0-1.192-.458-2.127-1.375-2.803-.886-.677-2.024-1.015-3.416-1.015-1.928 0-3.399.468-4.41 1.401-.981.902-1.471 2.03-1.471 3.383 0 1.127.3 2.078.901 2.85.6.74 1.565 1.482 2.893 2.223a60.793 60.793 0 0 0 3.51 1.74c2.024.933 3.621 1.787 4.791 2.56a9.716 9.716 0 0 1 2.988 3.044c.822 1.256 1.234 2.819 1.234 4.686 0 1.611-.506 3.077-1.518 4.398-.98 1.288-2.325 2.302-4.032 3.043-1.676.74-3.526 1.111-5.55 1.111Zm24.013-.386c-2.15 0-3.858-.66-5.123-1.981-1.265-1.32-1.897-3.06-1.897-5.218v-8.94c0-.836-.032-1.448-.095-1.835-.031-.386-.221-.724-.57-1.014-.347-.29-.932-.435-1.754-.435-.38 0-.664-.048-.854-.145-.19-.128-.284-.403-.284-.821 0-.194.063-.37.19-.53a.756.756 0 0 1 .569-.34c1.992-.29 3.7-.709 5.122-1.257.443-.16.806-.257 1.091-.29h.142c.506 0 .76.306.76.919v14.64c0 1.481.458 2.625 1.375 3.43a4.784 4.784 0 0 0 3.178 1.16c1.486 0 2.75-.371 3.794-1.112 1.044-.74 1.74-1.481 2.087-2.222V28.389c0-.838-.031-1.45-.094-1.837-.032-.386-.222-.724-.57-1.014-.348-.29-.933-.435-1.755-.435-.38 0-.664-.048-.853-.145-.19-.128-.285-.403-.285-.821 0-.194.063-.37.19-.53a.756.756 0 0 1 .569-.34c1.992-.29 3.7-.709 5.123-1.257.442-.16.806-.257 1.09-.29h.143c.506 0 .759.306.759.919v16.718c0 1.901 1.249 2.851 3.747 2.851.537 0 .806.306.806.919 0 .45-.269.724-.806.82l-7.637.531c-.221 0-.348-.08-.38-.24-.03-.13-.047-.37-.047-.725v-2.707h-.094a57.94 57.94 0 0 1-2.23 2.029c-.569.45-1.312.837-2.23 1.16-.885.354-1.944.53-3.177.53v.002Zm19.196-.434a.708.708 0 0 1-.57-.291 1.209 1.209 0 0 1-.19-.675c.032-.419.127-.662.285-.725.159-.097.443-.146.854-.146.822 0 1.407-.145 1.755-.435.348-.29.538-.628.569-1.014.064-.388.095-.999.095-1.837V27.905c0-.837-.031-1.449-.095-1.837-.031-.385-.221-.724-.569-1.013-.348-.29-.933-.436-1.755-.436-.38 0-.664-.048-.853-.145-.19-.128-.285-.402-.285-.821 0-.193.063-.37.19-.53a.756.756 0 0 1 .569-.34c2.055-.322 3.747-.74 5.075-1.256.538-.16.901-.258 1.091-.29h.142c.506 0 .759.307.759.92v2.994h.142c1.107-1.128 2.23-2.013 3.368-2.657 1.139-.677 2.166-1.014 3.083-1.014 1.044 0 1.866.402 2.467 1.207.632.773.948 1.675.948 2.706 0 .902-.268 1.707-.806 2.415-.538.71-1.281 1.063-2.229 1.063a2.4 2.4 0 0 1-1.186-.29c-.316-.193-.49-.354-.522-.482.032-.064.19-.258.474-.58.285-.355.427-.757.427-1.208 0-.58-.158-1.047-.474-1.4-.285-.356-.68-.533-1.186-.533-.537 0-1.217.274-2.039.822-.823.515-1.629 1.175-2.419 1.98v11.79c0 .837.031 1.448.094 1.836.064.386.269.725.617 1.014.348.29.933.435 1.755.435h.285c.253 0 .442.049.569.145.126.097.205.339.237.724 0 .259-.063.484-.19.677-.126.194-.316.29-.569.29a95.424 95.424 0 0 0-4.98-.145c-1.423 0-3.067.05-4.933.146Zm73.667.434c-2.15 0-4.063-.516-5.739-1.546a11.427 11.427 0 0 1-3.937-4.155 11.653 11.653 0 0 1-1.375-5.509c0-2.415.553-4.509 1.66-6.28 1.107-1.804 2.514-3.174 4.221-4.108 1.708-.966 3.431-1.448 5.17-1.448 2.151 0 4.064.53 5.74 1.593a10.592 10.592 0 0 1 3.889 4.155 11.064 11.064 0 0 1 1.423 5.46c0 2.416-.569 4.526-1.707 6.33-1.107 1.772-2.514 3.14-4.222 4.106-1.707.935-3.415 1.402-5.123 1.402Zm0-1.787c2.151 0 3.716-.935 4.696-2.803 1.012-1.868 1.518-4.284 1.518-7.247 0-2.77-.522-5.025-1.565-6.766-1.012-1.77-2.562-2.656-4.649-2.656-2.181 0-3.762.919-4.743 2.754-.98 1.836-1.47 4.235-1.47 7.2 0 2.769.506 5.057 1.518 6.86 1.012 1.772 2.577 2.658 4.695 2.658Zm23.004 2.028c-1.55 0-2.878-.58-3.985-1.739-1.106-1.16-1.66-2.818-1.66-4.976V23.847l-2.751.097a.57.57 0 0 1-.474-.242 1.121 1.121 0 0 1-.19-.629c0-.29.048-.53.142-.724.127-.226.301-.354.522-.387 1.107-.224 1.961-.58 2.562-1.062.632-.516 1.091-1.063 1.375-1.643.285-.612.633-1.53 1.044-2.755.158-.418.506-.627 1.043-.627.221 0 .443.064.664.193.221.096.332.258.332.483l-.332 5.508 5.55-.339h.095c.411 0 .616.306.616.919 0 .354-.063.693-.19 1.014-.094.29-.221.436-.379.436l-5.312-.145v14.688c0 1.063.205 1.949.616 2.657.443.709 1.154 1.063 2.135 1.063.98 0 1.85-.177 2.608-.532.412-.16.664-.242.759-.242.222 0 .396.097.522.29.127.162.253.388.38.677.034.076.05.158.047.242 0 .128-.095.273-.285.434-.917.613-1.786 1.016-2.608 1.209-.791.224-1.74.337-2.846.337Zm-76.664-.966c.126.194.316.29.569.29a92.671 92.671 0 0 1 4.933-.145c2.119 0 4.095.049 5.929.145a.59.59 0 0 0 .522-.29c.126-.194.189-.418.189-.677-.031-.385-.11-.627-.237-.724-.095-.096-.284-.145-.569-.145h-.285c-1.043 0-1.786-.08-2.229-.242-.443-.16-.743-.45-.901-.87-.158-.45-.237-1.175-.237-2.173V23.942h5.028a.71.71 0 0 0 .569-.29c.158-.193.237-.418.237-.677-.032-.385-.127-.627-.285-.724-.126-.129-.332-.194-.616-.194h-4.933V19.16c0-1.546.063-2.899.189-4.059a7.931 7.931 0 0 1 1.091-3.286c.601-.998 1.534-1.497 2.799-1.497.145 0 .286.008.422.026a8.34 8.34 0 0 1 .104-1.618 7.943 7.943 0 0 0-.194-.003c-2.783.065-4.949 1.143-6.498 3.238-1.518 2.061-2.277 4.751-2.277 8.069v2.03h-2.846c-.411 0-.696.047-.854.144-.158.064-.253.323-.284.773 0 .258.063.483.189.676a.76.76 0 0 0 .617.29h3.178V38.97c0 .87-.032 1.498-.095 1.885-.031.354-.221.677-.569.966-.348.29-.933.435-1.755.435-.411 0-.696.049-.854.145-.126.064-.205.306-.237.724 0 .259.063.484.19.677Z"/><path fill-rule="evenodd" d="M142.952 10.066a5.479 5.479 0 0 1-.403 2.056 5.367 5.367 0 0 1-1.143 1.742 5.255 5.255 0 0 1-1.709 1.163 5.173 5.173 0 0 1-2.015.407 5.212 5.212 0 0 1-3.724-1.57 5.432 5.432 0 0 1-1.546-3.798c0-.705.137-1.404.402-2.056a5.386 5.386 0 0 1 1.143-1.742 5.267 5.267 0 0 1 1.709-1.164 5.178 5.178 0 0 1 4.032 0c.639.27 1.22.665 1.709 1.164.489.498.878 1.09 1.143 1.742.265.652.402 1.35.402 2.056Zm-5.27 2.684a2.588 2.588 0 0 0 1.862-.785 2.693 2.693 0 0 0 .773-1.899 2.721 2.721 0 0 0-.772-1.9 2.64 2.64 0 0 0-.855-.58 2.608 2.608 0 0 0-2.87.582 2.716 2.716 0 0 0 0 3.796 2.607 2.607 0 0 0 1.862.786Zm-2.31 5.02v25.887c0 .289.08.514.238.676.158.194.379.29.664.29.284 0 .521-.13.711-.386.19-.226.364-.565.522-1.016.158-.45.3-.805.427-1.063h.237c2.055 1.579 4.49 2.367 7.304 2.367 1.898 0 3.684-.515 5.36-1.545 1.676-1.031 3.004-2.432 3.985-4.204 1.011-1.804 1.517-3.784 1.517-5.942 0-2.191-.442-4.14-1.328-5.847-.853-1.739-2.039-3.092-3.557-4.058-1.518-.967-3.21-1.45-5.075-1.45-1.139 0-2.293.241-3.463.725-1.138.451-2.166 1.143-3.083 2.078h-.142v-6.425a7.828 7.828 0 0 1-4.317-.088Zm14.325 22.455c-1.17 1.773-2.72 2.659-4.648 2.659-1.012 0-1.913-.226-2.704-.677-.759-.45-1.376-.983-1.85-1.595-.443-.644-.711-1.224-.806-1.739V26.118c1.359-1.482 3.035-2.223 5.028-2.223 2.245 0 3.936.902 5.075 2.706 1.138 1.771 1.707 3.913 1.707 6.425 0 2.996-.6 5.396-1.802 7.2ZM12.7.375a1.953 1.953 0 0 1 2.298 0c8.56 6.228 12.44 13.694 12.685 24.408.113 5.115-.37 9.799-1.841 13.845-1.51 4.048-4.193 7.788-8.143 10.947a1.942 1.942 0 0 1-1.76.347c-1.21-.354-1.416-1.815-2.09-2.725-.674.91-.878 2.37-2.09 2.724A1.94 1.94 0 0 1 10 49.575c-3.95-3.159-6.634-6.899-8.143-10.947-1.47-4.046-1.954-8.73-1.841-13.845C.26 14.069 4.14 6.602 12.7.374Zm4.426 44.586c2.472-2.316 3.962-4.842 5.014-7.747 1.325-3.55 1.707-7.475 1.592-12.337-.19-8.354-2.11-13.79-7.923-18.837v14.763c2.273.596 3.293 2.867 3.293 5.367 0 2.502-1.02 4.774-3.293 5.37v12.078s1.056.993 1.317 1.343Zm-6.588 0c-2.472-2.316-3.927-4.842-4.98-7.747-1.324-3.55-1.706-7.475-1.59-12.337.19-8.337 2.099-13.796 7.888-18.837v14.763c-2.273.596-3.294 2.867-3.294 5.367 0 2.502 1.02 4.774 3.294 5.37v12.078s-1.066 1.005-1.318 1.343Zm3.294-21.474c-.698 0-1.368.282-1.862.785a2.715 2.715 0 0 0-.773 1.898c0 1.484 1.18 2.685 2.635 2.685.698 0 1.368-.282 1.862-.785a2.715 2.715 0 0 0 .773-1.899c0-1.482-1.18-2.684-2.635-2.684Z" clip-rule="evenodd"/></g><defs><clipPath id="a"><path fill="#fff" d="M0 0h200v50H0z"/></clipPath></defs></svg>