<svg xmlns="http://www.w3.org/2000/svg" width="196" height="35" fill="none"><path fill="#9C9C9C" d="M21.644 33.924a6.825 6.825 0 0 1-3.38-.791 6.938 6.938 0 0 1-2.574-2.358 11.462 11.462 0 0 1-7.47 3.15c-4.987 0-7.69-3.567-6.777-8.679.694-3.843 3.799-7.695 4.667-10.788-1.68-1.037-4.174-1.76-5.343.36L0 14.346c.612-2.325 2.091-3.87 4.228-3.87 2.137 0 3.717 1.286 5.754.101h1.625c-.867 4.63-3.059 8.334-4.228 14.818-.712 3.973.612 5.779 2.85 5.779a6.732 6.732 0 0 0 4.273-2.326 19.014 19.014 0 0 1-1.324-7.121c0-5.631 2.548-11.567 6.822-11.567 2.192 0 3.817 1.546 3.817 5.214 0 3.667-2.191 9.344-4.986 12.91.151.848.59 1.617 1.24 2.174.65.556 1.471.865 2.322.873 4.073 0 6.922-6.197 6.922-11.929 0-5.731-2.447-5.473-2.237-7.408.019-.242.084-.478.192-.694.107-.216.255-.407.435-.564a1.81 1.81 0 0 1 1.318-.446c1.27 0 2.94 1.63 2.94 8.242 0 8.427-4.419 15.392-10.319 15.392Zm-.922-20.856c-1.27 0-2.494 4.751-2.649 9.66a21.33 21.33 0 0 0 .055 3.148 24.95 24.95 0 0 0 3.415-10.585c-.009-1.668-.31-2.224-.822-2.224l.001.001Zm19.607 20.643a3.607 3.607 0 0 1-1.577-.186 3.644 3.644 0 0 1-1.35-.846 3.75 3.75 0 0 1-1.092-2.941c0-2.27 2.905-13.577 2.905-15.438 0-.88-.201-1.398-.968-1.398a4.396 4.396 0 0 0-2.293 1.138v-1.602a7.426 7.426 0 0 1 4.84-2.009 3.65 3.65 0 0 1 1.583.206c.506.185.966.479 1.349.863.382.383.678.846.866 1.358.187.511.263 1.058.22 1.601 0 2.269-2.903 13.53-2.903 15.383 0 .88.2 1.399.968 1.399a4.738 4.738 0 0 0 2.292-1.084V31.7a7.326 7.326 0 0 1-4.84 2.01ZM43.89 1.028a2.713 2.713 0 0 1 2.122.916c.267.297.467.651.585 1.038.118.386.15.794.097 1.195A3.573 3.573 0 0 1 45.573 6.4c-.63.58-1.44.91-2.285.927a2.706 2.706 0 0 1-1.16-.22 2.76 2.76 0 0 1-1.547-1.733 2.816 2.816 0 0 1-.097-1.196 3.574 3.574 0 0 1 1.121-2.221c.63-.58 1.44-.91 2.285-.928Zm11.306 27.83c-.255 1.398-.1 2.371.868 2.371a4.539 4.539 0 0 0 2.292-1.084l.091 1.556a7.426 7.426 0 0 1-4.84 2.01c-3.16 0-4.383-2.324-3.917-5.214l3.105-17.92c1.032-5.983.675-6.77-2.485-6.77l.201-1.444 9.525-1.279-4.84 27.775Zm26.786-.047c-.256 1.4-.156 2.428.867 2.428a4.805 4.805 0 0 0 2.293-1.14v1.602a7.255 7.255 0 0 1-4.84 2.01 3.62 3.62 0 0 1-2.531-.788 3.714 3.714 0 0 1-1.342-2.314 8.347 8.347 0 0 1-2.877 2.44 8.226 8.226 0 0 1-3.643.912c-6.055 0-8.603-5.417-7.434-11.928 1.169-6.51 6.62-11.826 12.785-11.826a8.477 8.477 0 0 1 4.192 1.008l.155-.823c1.206-6.372.649-6.585-2.511-6.585l.155-1.444 9.57-1.279-4.84 27.728h.001Zm-6.567-16.27c-3.516 0-5.853 4.231-6.776 9.445-.968 5.474-.356 9.262 2.95 9.262 2.237 0 4.785-2.78 5.552-7.02l1.882-10.743a6.388 6.388 0 0 0-3.608-.945ZM98.073 33.97c-7.078 0-9.014-5.168-8.146-10.123l2.31-13.27c1.069-5.99.713-6.817-2.447-6.817l.2-1.444 9.553-1.232-1.936 11.252a8.472 8.472 0 0 1 5.343-2.12c6.164 0 9.059 5.316 7.945 11.826-1.114 6.51-6.785 11.928-12.822 11.928Zm3.306-21.3a4.834 4.834 0 0 0-2.845 1.003 4.946 4.946 0 0 0-1.721 2.506l-1.425 8.336c-.868 4.954.868 6.973 3.06 6.973 3.205 0 5.196-3.611 6.264-9.548.95-5.316.083-9.242-3.342-9.242l.009-.028Zm19.169 12.373c0 3.973 1.881 6.094 5.479 6.094 1.827 0 4.484-1.287 6.165-2.992l.712 1.648a13.173 13.173 0 0 1-4.267 3.056 13.004 13.004 0 0 1-5.103 1.13c-5.342 0-8.959-4.028-8.959-9.502 0-8.103 6.621-14.252 12.987-14.252 3.872 0 6.054 2.167 6.054 4.695-.045 3.926-3.716 8.336-13.068 10.123Zm6.566-12.447c-2.904 0-5.698 4.287-6.466 10.428 5.854-1.445 8.347-5.474 8.402-8.057-.009-1.445-.676-2.371-1.945-2.371h.009Zm27.279 21.115a3.62 3.62 0 0 1-2.531-.788 3.715 3.715 0 0 1-1.341-2.314 8.058 8.058 0 0 1-2.806 2.442 7.933 7.933 0 0 1-3.587.91c-5.954 0-8.502-5.417-7.306-11.928 1.196-6.51 6.557-11.818 12.74-11.818a9.514 9.514 0 0 1 3.817.78h5.808l-3.114 17.816c-.256 1.4-.155 2.428.868 2.428a4.805 4.805 0 0 0 2.292-1.14v1.602a7.255 7.255 0 0 1-4.84 2.01Zm-4.685-21.17c-3.416 0-5.808 4.231-6.722 9.445-.968 5.474-.301 9.262 2.74 9.262 2.338 0 4.84-2.89 5.553-7.02l1.881-10.743a5.84 5.84 0 0 0-3.443-.945h-.009Zm27.297 3.768c-1.379 0-1.736-1.083-2.137-2.223a2.545 2.545 0 0 0-.929-1.437 2.479 2.479 0 0 0-1.619-.507 3.001 3.001 0 0 0-2.083.694 3.083 3.083 0 0 0-1.077 1.936c-.155 1.4.867 2.584 2.803 4.288l2.594 2.167a6.742 6.742 0 0 1 2.164 2.882 6.839 6.839 0 0 1 .384 3.6c-.658 3.871-3.817 6.251-8.046 6.251-5.096 0-8.347-3.047-7.991-5.112.083-.542.353-1.04.763-1.398.41-.36.933-.56 1.475-.565 1.324 0 1.826 1.029 2.237 2.37a3.699 3.699 0 0 0 1.443 1.883c.674.449 1.473.66 2.274.6a3.16 3.16 0 0 0 2.184-.74 3.244 3.244 0 0 0 1.122-2.038c.201-1.852-.913-2.991-3.004-4.909l-2.548-2.269a6.462 6.462 0 0 1-2.028-2.683 6.564 6.564 0 0 1-.42-3.354c.457-2.482 2.74-5.557 7.991-5.557 4.073 0 6.621 2.324 6.393 4.186a2.05 2.05 0 0 1-.6 1.353c-.36.359-.841.567-1.345.582Zm18.639-3.24h-4.941l-2.392 13.723c-.512 2.844-.101 4.132 1.424 4.132.813 0 2.091-.464 3.918-2.371l.1 2.01a8.91 8.91 0 0 1-3.015 2.346 8.79 8.79 0 0 1-3.706.857c-3.461 0-5.196-2.481-4.374-7.075l2.392-13.623h-3.863l.302-2.12h3.899l1.023-6.14h5.699l-1.069 6.139h4.941l-.338 2.121Z"/></svg>