<svg xmlns="http://www.w3.org/2000/svg" width="32" height="32" fill="none"><path fill="url(#a)" d="M16 10.667A5.332 5.332 0 0 1 21.335 16a5.332 5.332 0 0 1-5.333 5.334A5.332 5.332 0 0 1 10.667 16a5.332 5.332 0 0 1 5.334-5.333Zm-11.92 4A11.992 11.992 0 0 1 14.669 4.08V2.667c0-.733.6-1.333 1.333-1.333s1.333.6 1.333 1.333V4.08a11.992 11.992 0 0 1 10.587 10.587h1.413c.733 0 1.334.6 1.334 1.333s-.6 1.334-1.334 1.334h-1.413A11.992 11.992 0 0 1 17.334 27.92v1.413c0 .734-.6 1.334-1.333 1.334-.734 0-1.334-.6-1.334-1.334V27.92A11.992 11.992 0 0 1 4.082 17.333H2.667c-.733 0-1.333-.6-1.333-1.333s.6-1.333 1.333-1.333h1.414ZM16 25.334A9.327 9.327 0 0 0 25.335 16a9.326 9.326 0 0 0-9.333-9.333A9.326 9.326 0 0 0 6.667 16a9.327 9.327 0 0 0 9.334 9.334Z"/><defs><linearGradient id="a" x1="16.001" x2="16.001" y1="1.333" y2="30.667" gradientUnits="userSpaceOnUse"><stop stop-color="#FFBF00"/><stop offset="1" stop-color="#F2A50C"/></linearGradient></defs></svg>