<svg xmlns="http://www.w3.org/2000/svg" width="32" height="32" fill="none"><path fill="url(#a)" d="M8 10.667h1.334V8A6.669 6.669 0 0 1 16 1.333 6.67 6.67 0 0 1 22.667 8v2.667H24c1.467 0 2.667 1.2 2.667 2.666v13.334c0 1.466-1.2 2.666-2.667 2.666H8a2.674 2.674 0 0 1-2.666-2.666V13.333c0-1.466 1.2-2.666 2.666-2.666Zm8 12c1.467 0 2.667-1.2 2.667-2.667 0-1.467-1.2-2.667-2.667-2.667A2.674 2.674 0 0 0 13.334 20c0 1.467 1.2 2.667 2.666 2.667Zm4-12V8c0-2.213-1.786-4-4-4-2.213 0-4 1.787-4 4v2.667h8Z"/><defs><linearGradient id="a" x1="16" x2="16" y1="1.333" y2="29.333" gradientUnits="userSpaceOnUse"><stop stop-color="#FFBF00"/><stop offset="1" stop-color="#F2A50C"/></linearGradient></defs></svg>